# xmcd
#
# Track frame offsets:
#	182
#	20085
#	37590
#	55077
#
# Disc length: 912 seconds
#
# Revision: 0
# Processed by: cddbd v1.4PL0 Copyright (c) Steve Scherf et al.
# Submitted via: dBpowerAMP V4.0
#
DISCID=25038e04
DTITLE=Gary Moore - Separate Ways
DYEAR=1992
DGENRE=Blues
TTITLE0=Separate Ways
TTITLE1=Only fool in town
TTITLE2=You don't love me
TTITLE3=The Stumble
EXTD=
EXTT0=
EXTT1=
EXTT2=
EXTT3=
PLAYORDER=
